<svg width="512" height="512" viewBox="0 0 512 512" xmlns="http://www.w3.org/2000/svg" role="img" aria-labelledby="title desc">
  <title id="title">ATLAS project icon</title>
  <desc id="desc">Shield-like circle with knowledge book, guidance arrow, evidence nodes, and verifier checkmark.</desc>

  <defs>
    <linearGradient id="bgGradient" x1="90" y1="70" x2="420" y2="440" gradientUnits="userSpaceOnUse">
      <stop offset="0" stop-color="#2563EB"/>
      <stop offset="1" stop-color="#1A1A2E"/>
    </linearGradient>
    <linearGradient id="ringGradient" x1="120" y1="120" x2="392" y2="392" gradientUnits="userSpaceOnUse">
      <stop offset="0" stop-color="#93C5FD" stop-opacity="0.8"/>
      <stop offset="1" stop-color="#1D4ED8" stop-opacity="0.35"/>
    </linearGradient>
    <radialGradient id="centerGlow" cx="0" cy="0" r="1" gradientUnits="userSpaceOnUse" gradientTransform="translate(256 248) rotate(90) scale(180)">
      <stop offset="0" stop-color="#FFFFFF" stop-opacity="0.22"/>
      <stop offset="1" stop-color="#FFFFFF" stop-opacity="0"/>
    </radialGradient>
    <filter id="softShadow" x="-20%" y="-20%" width="140%" height="140%">
      <feDropShadow dx="0" dy="7" stdDeviation="10" flood-color="#0F172A" flood-opacity="0.3"/>
    </filter>
  </defs>

  <circle cx="256" cy="256" r="232" fill="url(#bgGradient)"/>
  <circle cx="256" cy="256" r="232" fill="url(#centerGlow)"/>
  <circle cx="256" cy="256" r="206" fill="none" stroke="url(#ringGradient)" stroke-width="12"/>

  <path d="M120 214C157 168 212 142 256 142C300 142 355 168 392 214" fill="none" stroke="#BFDBFE" stroke-opacity="0.65" stroke-width="6" stroke-linecap="round"/>
  <path d="M135 311C172 356 218 382 256 382C294 382 340 356 377 311" fill="none" stroke="#60A5FA" stroke-opacity="0.45" stroke-width="5" stroke-linecap="round" stroke-dasharray="10 12"/>

  <g filter="url(#softShadow)">
    <path d="M160 214C160 196 175 182 194 182H252V346L190 330C173 326 160 311 160 294V214Z" fill="#E2E8F0"/>
    <path d="M352 214C352 196 337 182 318 182H260V346L322 330C339 326 352 311 352 294V214Z" fill="#CBD5E1"/>
    <path d="M256 182V346" stroke="#94A3B8" stroke-width="6" stroke-linecap="round"/>

    <path d="M256 122L213 202H236L256 165L276 202H299L256 122Z" fill="#FBBF24"/>
    <rect x="249" y="195" width="14" height="76" rx="7" fill="#FBBF24"/>
  </g>

  <path d="M188 282C204 266 226 258 247 258C271 258 294 268 310 286" fill="none" stroke="#1D4ED8" stroke-width="8" stroke-linecap="round"/>
  <path d="M203 300C220 288 241 282 262 282C280 282 299 287 314 296" fill="none" stroke="#2563EB" stroke-width="6" stroke-linecap="round" opacity="0.78"/>

  <circle cx="144" cy="210" r="13" fill="#FBBF24" stroke="#FEF3C7" stroke-width="4"/>
  <circle cx="368" cy="210" r="13" fill="#FBBF24" stroke="#FEF3C7" stroke-width="4"/>
  <circle cx="256" cy="392" r="12" fill="#FBBF24" stroke="#FEF3C7" stroke-width="4"/>

  <g filter="url(#softShadow)">
    <circle cx="356" cy="350" r="56" fill="#16A34A" stroke="#DCFCE7" stroke-width="8"/>
    <path d="M329 351L348 370L385 333" fill="none" stroke="#FFFFFF" stroke-width="14" stroke-linecap="round" stroke-linejoin="round"/>
  </g>
</svg>
